<svg width="18" height="18" viewBox="0 0 18 18" fill="none" xmlns="http://www.w3.org/2000/svg">
<path d="M2.25 15C2.25 15.8273 2.92275 16.5 3.75 16.5H14.25C15.0773 16.5 15.75 15.8273 15.75 15V3.75C15.75 2.92275 15.0773 2.25 14.25 2.25H12.75C12.75 2.05109 12.671 1.86032 12.5303 1.71967C12.3897 1.57902 12.1989 1.5 12 1.5H6C5.80109 1.5 5.61032 1.57902 5.46967 1.71967C5.32902 1.86032 5.25 2.05109 5.25 2.25H3.75C2.92275 2.25 2.25 2.92275 2.25 3.75V15ZM3.75 3.75H5.25V5.25H12.75V3.75H14.25V15H3.75V3.75Z" fill="#F44747"/>
<path d="M10.719 7.72119L8.99996 9.44019L7.28096 7.72119L6.22046 8.78169L7.93946 10.5007L6.22046 12.2197L7.28096 13.2802L8.99996 11.5612L10.719 13.2802L11.7795 12.2197L10.0605 10.5007L11.7795 8.78169L10.719 7.72119Z" fill="#F44747"/>
</svg>
